<svg viewBox="-28 0 511 512" xmlns="http://www.w3.org/2000/svg"><path d="m285.5 0c-74.398438 0-135 60.597656-135 135 0 74.398438 60.601562 135 135 135s135-60.601562 135-135c0-74.402344-60.601562-135-135-135zm0 0" fill="#ffe470"/><path d="m420.5 135c0 74.398438-60.601562 135-135 135v-270c74.398438 0 135 60.597656 135 135zm0 0" fill="#ffd400"/><path d="m390.5 135c0 57.898438-47.101562 105-105 105s-105-47.101562-105-105 47.101562-105 105-105 105 47.101562 105 105zm0 0" fill="#fdbf00"/><path d="m390.5 135c0 57.898438-47.101562 105-105 105v-210c57.898438 0 105 47.101562 105 105zm0 0" fill="#ff9f00"/><path d="m330.5 165c0 19.5-12.597656 36-30 42.300781v17.699219c0 8.398438-6.597656 15-15 15s-15-6.601562-15-15v-17.699219c-17.402344-6.300781-30-22.800781-30-42.300781 0-8.402344 6.597656-15 15-15s15 6.597656 15 15c0 8.398438 6.597656 15 15 15s15-6.601562 15-15c0-8.402344-6.597656-15-15-15-24.902344 0-45-20.101562-45-45 0-19.5 12.597656-36 30-42.300781v-17.699219c0-8.402344 6.597656-15 15-15s15 6.597656 15 15v17.699219c17.402344 6.300781 30 22.800781 30 42.300781 0 8.398438-6.597656 15-15 15s-15-6.601562-15-15c0-8.402344-6.597656-15-15-15s-15 6.597656-15 15c0 8.398438 6.597656 15 15 15 24.898438 0 45 20.097656 45 45zm0 0" fill="#ffe470"/><path d="m449.597656 363.199219-80.097656 106.800781c-19.800781 26.398438-51 42-84 42h-270c-8.402344 0-15-6.601562-15-15v-120c0-8.402344 6.597656-15 15-15h24l41.699219-36.601562c40.800781-36 103.5-34.796876 143.101562 4.199218 2.101563.902344 3.601563 1.5 5.699219 2.402344h40.5c5.398438 0 10.5 1.5 15 4.199219 9 5.101562 15 14.699219 15 25.800781s-6 20.699219-15 25.800781c-4.5 2.699219-9.601562 4.199219-15 4.199219h-76.5c-8.402344 0-15 6.597656-15 15 0 8.398438 6.597656 15 15 15h101.699219c26.398437 0 36-18 64.800781-48.898438l44.097656-47.402343c11.398438-12 30.601563-12.300781 42.300782-.601563 10.199218 10.203125 11.402343 26.703125 2.699218 38.101563zm0 0" fill="#ffbd86"/><path d="m285.5 387.800781v-51.601562c9 5.101562 15 14.699219 15 25.800781s-6 20.699219-15 25.800781zm0 0" fill="#f6a96c"/><path d="m330.5 165c0 19.5-12.597656 36-30 42.300781v17.699219c0 8.398438-6.597656 15-15 15v-60c8.402344 0 15-6.601562 15-15 0-8.402344-6.597656-15-15-15v-30c24.898438 0 45 20.097656 45 45zm0 0" fill="#ffd400"/><path d="m285.5 90v-60c8.402344 0 15 6.597656 15 15v17.699219c17.402344 6.300781 30 22.800781 30 42.300781 0 8.398438-6.597656 15-15 15s-15-6.601562-15-15c0-8.402344-6.597656-15-15-15zm0 0" fill="#ffd400"/><path d="m449.597656 363.199219-80.097656 106.800781c-19.800781 26.398438-51 42-84 42v-90h10.199219c26.398437 0 36-18 64.800781-48.898438l44.097656-47.402343c11.402344-12 30.601563-12.300781 42.300782-.601563 10.199218 10.203125 11.402343 26.703125 2.699218 38.101563zm0 0" fill="#f6a96c"/></svg>